<svg width="145" height="13" viewBox="0 0 145 13" fill="none" xmlns="http://www.w3.org/2000/svg">
<path d="M7.904 9.728H3.248L2.448 12H0.544L4.528 0.863999H6.64L10.624 12H8.704L7.904 9.728ZM7.392 8.24L5.584 3.072L3.76 8.24H7.392ZM16.0203 12.112C15.2736 12.112 14.6016 11.984 14.0043 11.728C13.4069 11.4613 12.9376 11.088 12.5963 10.608C12.2549 10.128 12.0843 9.568 12.0843 8.928H14.0363C14.0789 9.408 14.2656 9.80267 14.5963 10.112C14.9376 10.4213 15.4123 10.576 16.0203 10.576C16.6496 10.576 17.1403 10.4267 17.4923 10.128C17.8443 9.81867 18.0203 9.424 18.0203 8.944C18.0203 8.57067 17.9083 8.26667 17.6843 8.032C17.4709 7.79733 17.1989 7.616 16.8683 7.488C16.5483 7.36 16.1003 7.22133 15.5243 7.072C14.7989 6.88 14.2069 6.688 13.7483 6.496C13.3003 6.29333 12.9163 5.984 12.5963 5.568C12.2763 5.152 12.1163 4.59733 12.1163 3.904C12.1163 3.264 12.2763 2.704 12.5963 2.224C12.9163 1.744 13.3643 1.376 13.9403 1.12C14.5163 0.863999 15.1829 0.735999 15.9403 0.735999C17.0176 0.735999 17.8976 1.008 18.5803 1.552C19.2736 2.08533 19.6576 2.82133 19.7323 3.76H17.7163C17.6843 3.35467 17.4923 3.008 17.1403 2.72C16.7883 2.432 16.3243 2.288 15.7483 2.288C15.2256 2.288 14.7989 2.42133 14.4683 2.688C14.1376 2.95467 13.9723 3.33867 13.9723 3.84C13.9723 4.18133 14.0736 4.464 14.2763 4.688C14.4896 4.90133 14.7563 5.072 15.0763 5.2C15.3963 5.328 15.8336 5.46667 16.3883 5.616C17.1243 5.81867 17.7216 6.02133 18.1803 6.224C18.6496 6.42667 19.0443 6.74133 19.3643 7.168C19.6949 7.584 19.8603 8.144 19.8603 8.848C19.8603 9.41333 19.7056 9.94667 19.3963 10.448C19.0976 10.9493 18.6549 11.3547 18.0683 11.664C17.4923 11.9627 16.8096 12.112 16.0203 12.112ZM25.6765 12.112C24.9298 12.112 24.2578 11.984 23.6605 11.728C23.0632 11.4613 22.5938 11.088 22.2525 10.608C21.9112 10.128 21.7405 9.568 21.7405 8.928H23.6925C23.7352 9.408 23.9218 9.80267 24.2525 10.112C24.5938 10.4213 25.0685 10.576 25.6765 10.576C26.3058 10.576 26.7965 10.4267 27.1485 10.128C27.5005 9.81867 27.6765 9.424 27.6765 8.944C27.6765 8.57067 27.5645 8.26667 27.3405 8.032C27.1272 7.79733 26.8552 7.616 26.5245 7.488C26.2045 7.36 25.7565 7.22133 25.1805 7.072C24.4552 6.88 23.8632 6.688 23.4045 6.496C22.9565 6.29333 22.5725 5.984 22.2525 5.568C21.9325 5.152 21.7725 4.59733 21.7725 3.904C21.7725 3.264 21.9325 2.704 22.2525 2.224C22.5725 1.744 23.0205 1.376 23.5965 1.12C24.1725 0.863999 24.8392 0.735999 25.5965 0.735999C26.6738 0.735999 27.5538 1.008 28.2365 1.552C28.9298 2.08533 29.3138 2.82133 29.3885 3.76H27.3725C27.3405 3.35467 27.1485 3.008 26.7965 2.72C26.4445 2.432 25.9805 2.288 25.4045 2.288C24.8818 2.288 24.4552 2.42133 24.1245 2.688C23.7938 2.95467 23.6285 3.33867 23.6285 3.84C23.6285 4.18133 23.7298 4.464 23.9325 4.688C24.1458 4.90133 24.4125 5.072 24.7325 5.2C25.0525 5.328 25.4898 5.46667 26.0445 5.616C26.7805 5.81867 27.3778 6.02133 27.8365 6.224C28.3058 6.42667 28.7005 6.74133 29.0205 7.168C29.3512 7.584 29.5165 8.144 29.5165 8.848C29.5165 9.41333 29.3618 9.94667 29.0525 10.448C28.7538 10.9493 28.3112 11.3547 27.7245 11.664C27.1485 11.9627 26.4658 12.112 25.6765 12.112ZM33.4928 0.879999V12H31.6688V0.879999H33.4928ZM39.5515 12.112C38.8048 12.112 38.1328 11.984 37.5355 11.728C36.9382 11.4613 36.4688 11.088 36.1275 10.608C35.7862 10.128 35.6155 9.568 35.6155 8.928H37.5675C37.6102 9.408 37.7968 9.80267 38.1275 10.112C38.4688 10.4213 38.9435 10.576 39.5515 10.576C40.1808 10.576 40.6715 10.4267 41.0235 10.128C41.3755 9.81867 41.5515 9.424 41.5515 8.944C41.5515 8.57067 41.4395 8.26667 41.2155 8.032C41.0022 7.79733 40.7302 7.616 40.3995 7.488C40.0795 7.36 39.6315 7.22133 39.0555 7.072C38.3302 6.88 37.7382 6.688 37.2795 6.496C36.8315 6.29333 36.4475 5.984 36.1275 5.568C35.8075 5.152 35.6475 4.59733 35.6475 3.904C35.6475 3.264 35.8075 2.704 36.1275 2.224C36.4475 1.744 36.8955 1.376 37.4715 1.12C38.0475 0.863999 38.7142 0.735999 39.4715 0.735999C40.5488 0.735999 41.4288 1.008 42.1115 1.552C42.8048 2.08533 43.1888 2.82133 43.2635 3.76H41.2475C41.2155 3.35467 41.0235 3.008 40.6715 2.72C40.3195 2.432 39.8555 2.288 39.2795 2.288C38.7568 2.288 38.3302 2.42133 37.9995 2.688C37.6688 2.95467 37.5035 3.33867 37.5035 3.84C37.5035 4.18133 37.6048 4.464 37.8075 4.688C38.0208 4.90133 38.2875 5.072 38.6075 5.2C38.9275 5.328 39.3648 5.46667 39.9195 5.616C40.6555 5.81867 41.2528 6.02133 41.7115 6.224C42.1808 6.42667 42.5755 6.74133 42.8955 7.168C43.2262 7.584 43.3915 8.144 43.3915 8.848C43.3915 9.41333 43.2368 9.94667 42.9275 10.448C42.6288 10.9493 42.1862 11.3547 41.5995 11.664C41.0235 11.9627 40.3408 12.112 39.5515 12.112ZM52.7278 0.879999V2.368H49.7678V12H47.9438V2.368H44.9678V0.879999H52.7278ZM61.279 9.728H56.623L55.823 12H53.919L57.903 0.863999H60.015L63.999 12H62.079L61.279 9.728ZM60.767 8.24L58.959 3.072L57.135 8.24H60.767ZM74.9595 12.112C73.9248 12.112 72.9702 11.872 72.0955 11.392C71.2315 10.9013 70.5435 10.224 70.0315 9.36C69.5302 8.48533 69.2795 7.504 69.2795 6.416C69.2795 5.328 69.5302 4.352 70.0315 3.488C70.5435 2.624 71.2315 1.952 72.0955 1.472C72.9702 0.981332 73.9248 0.735999 74.9595 0.735999C76.0048 0.735999 76.9595 0.981332 77.8235 1.472C78.6982 1.952 79.3862 2.624 79.8875 3.488C80.3888 4.352 80.6395 5.328 80.6395 6.416C80.6395 7.504 80.3888 8.48533 79.8875 9.36C79.3862 10.224 78.6982 10.9013 77.8235 11.392C76.9595 11.872 76.0048 12.112 74.9595 12.112ZM74.9595 10.528C75.6955 10.528 76.3515 10.3627 76.9275 10.032C77.5035 9.69067 77.9515 9.21067 78.2715 8.592C78.6022 7.96267 78.7675 7.23733 78.7675 6.416C78.7675 5.59467 78.6022 4.87467 78.2715 4.256C77.9515 3.63733 77.5035 3.16267 76.9275 2.832C76.3515 2.50133 75.6955 2.336 74.9595 2.336C74.2235 2.336 73.5675 2.50133 72.9915 2.832C72.4155 3.16267 71.9622 3.63733 71.6315 4.256C71.3115 4.87467 71.1515 5.59467 71.1515 6.416C71.1515 7.23733 71.3115 7.96267 71.6315 8.592C71.9622 9.21067 72.4155 9.69067 72.9915 10.032C73.5675 10.3627 74.2235 10.528 74.9595 10.528ZM93.7746 0.879999V2.368H90.8146V12H88.9906V2.368H86.0146V0.879999H93.7746ZM101.398 12L98.8379 7.552H97.4459V12H95.6219V0.879999H99.4619C100.315 0.879999 101.035 1.02933 101.622 1.328C102.219 1.62667 102.662 2.02667 102.95 2.528C103.249 3.02933 103.398 3.58933 103.398 4.208C103.398 4.93333 103.185 5.59467 102.758 6.192C102.342 6.77867 101.697 7.17867 100.822 7.392L103.574 12H101.398ZM97.4459 6.096H99.4619C100.145 6.096 100.657 5.92533 100.998 5.584C101.35 5.24267 101.526 4.784 101.526 4.208C101.526 3.632 101.355 3.184 101.014 2.864C100.673 2.53333 100.155 2.368 99.4619 2.368H97.4459V6.096ZM112.435 9.728H107.779L106.979 12H105.075L109.059 0.863999H111.171L115.155 12H113.235L112.435 9.728ZM111.923 8.24L110.115 3.072L108.291 8.24H111.923ZM118.712 0.879999V12H116.888V0.879999H118.712ZM122.93 10.528H126.69V12H121.106V0.879999H122.93V10.528ZM130.04 2.352V5.616H133.88V7.104H130.04V10.512H134.36V12H128.216V0.863999H134.36V2.352H130.04ZM142.382 12L139.822 7.552H138.43V12H136.606V0.879999H140.446C141.3 0.879999 142.02 1.02933 142.606 1.328C143.204 1.62667 143.646 2.02667 143.934 2.528C144.233 3.02933 144.382 3.58933 144.382 4.208C144.382 4.93333 144.169 5.59467 143.742 6.192C143.326 6.77867 142.681 7.17867 141.806 7.392L144.558 12H142.382ZM138.43 6.096H140.446C141.129 6.096 141.641 5.92533 141.982 5.584C142.334 5.24267 142.51 4.784 142.51 4.208C142.51 3.632 142.34 3.184 141.998 2.864C141.657 2.53333 141.14 2.368 140.446 2.368H138.43V6.096Z" fill="#F9F9F9"/>
</svg>
