<svg width="129" height="13" viewBox="0 0 129 13" fill="none" xmlns="http://www.w3.org/2000/svg">
<path d="M7.904 9.728H3.248L2.448 12H0.544L4.528 0.863999H6.64L10.624 12H8.704L7.904 9.728ZM7.392 8.24L5.584 3.072L3.76 8.24H7.392ZM16.0203 12.112C15.2736 12.112 14.6016 11.984 14.0043 11.728C13.4069 11.4613 12.9376 11.088 12.5963 10.608C12.2549 10.128 12.0843 9.568 12.0843 8.928H14.0363C14.0789 9.408 14.2656 9.80267 14.5963 10.112C14.9376 10.4213 15.4123 10.576 16.0203 10.576C16.6496 10.576 17.1403 10.4267 17.4923 10.128C17.8443 9.81867 18.0203 9.424 18.0203 8.944C18.0203 8.57067 17.9083 8.26667 17.6843 8.032C17.4709 7.79733 17.1989 7.616 16.8683 7.488C16.5483 7.36 16.1003 7.22133 15.5243 7.072C14.7989 6.88 14.2069 6.688 13.7483 6.496C13.3003 6.29333 12.9163 5.984 12.5963 5.568C12.2763 5.152 12.1163 4.59733 12.1163 3.904C12.1163 3.264 12.2763 2.704 12.5963 2.224C12.9163 1.744 13.3643 1.376 13.9403 1.12C14.5163 0.863999 15.1829 0.735999 15.9403 0.735999C17.0176 0.735999 17.8976 1.008 18.5803 1.552C19.2736 2.08533 19.6576 2.82133 19.7323 3.76H17.7163C17.6843 3.35467 17.4923 3.008 17.1403 2.72C16.7883 2.432 16.3243 2.288 15.7483 2.288C15.2256 2.288 14.7989 2.42133 14.4683 2.688C14.1376 2.95467 13.9723 3.33867 13.9723 3.84C13.9723 4.18133 14.0736 4.464 14.2763 4.688C14.4896 4.90133 14.7563 5.072 15.0763 5.2C15.3963 5.328 15.8336 5.46667 16.3883 5.616C17.1243 5.81867 17.7216 6.02133 18.1803 6.224C18.6496 6.42667 19.0443 6.74133 19.3643 7.168C19.6949 7.584 19.8603 8.144 19.8603 8.848C19.8603 9.41333 19.7056 9.94667 19.3963 10.448C19.0976 10.9493 18.6549 11.3547 18.0683 11.664C17.4923 11.9627 16.8096 12.112 16.0203 12.112ZM25.6765 12.112C24.9298 12.112 24.2578 11.984 23.6605 11.728C23.0632 11.4613 22.5938 11.088 22.2525 10.608C21.9112 10.128 21.7405 9.568 21.7405 8.928H23.6925C23.7352 9.408 23.9218 9.80267 24.2525 10.112C24.5938 10.4213 25.0685 10.576 25.6765 10.576C26.3058 10.576 26.7965 10.4267 27.1485 10.128C27.5005 9.81867 27.6765 9.424 27.6765 8.944C27.6765 8.57067 27.5645 8.26667 27.3405 8.032C27.1272 7.79733 26.8552 7.616 26.5245 7.488C26.2045 7.36 25.7565 7.22133 25.1805 7.072C24.4552 6.88 23.8632 6.688 23.4045 6.496C22.9565 6.29333 22.5725 5.984 22.2525 5.568C21.9325 5.152 21.7725 4.59733 21.7725 3.904C21.7725 3.264 21.9325 2.704 22.2525 2.224C22.5725 1.744 23.0205 1.376 23.5965 1.12C24.1725 0.863999 24.8392 0.735999 25.5965 0.735999C26.6738 0.735999 27.5538 1.008 28.2365 1.552C28.9298 2.08533 29.3138 2.82133 29.3885 3.76H27.3725C27.3405 3.35467 27.1485 3.008 26.7965 2.72C26.4445 2.432 25.9805 2.288 25.4045 2.288C24.8818 2.288 24.4552 2.42133 24.1245 2.688C23.7938 2.95467 23.6285 3.33867 23.6285 3.84C23.6285 4.18133 23.7298 4.464 23.9325 4.688C24.1458 4.90133 24.4125 5.072 24.7325 5.2C25.0525 5.328 25.4898 5.46667 26.0445 5.616C26.7805 5.81867 27.3778 6.02133 27.8365 6.224C28.3058 6.42667 28.7005 6.74133 29.0205 7.168C29.3512 7.584 29.5165 8.144 29.5165 8.848C29.5165 9.41333 29.3618 9.94667 29.0525 10.448C28.7538 10.9493 28.3112 11.3547 27.7245 11.664C27.1485 11.9627 26.4658 12.112 25.6765 12.112ZM33.4928 0.879999V12H31.6688V0.879999H33.4928ZM39.5515 12.112C38.8048 12.112 38.1328 11.984 37.5355 11.728C36.9382 11.4613 36.4688 11.088 36.1275 10.608C35.7862 10.128 35.6155 9.568 35.6155 8.928H37.5675C37.6102 9.408 37.7968 9.80267 38.1275 10.112C38.4688 10.4213 38.9435 10.576 39.5515 10.576C40.1808 10.576 40.6715 10.4267 41.0235 10.128C41.3755 9.81867 41.5515 9.424 41.5515 8.944C41.5515 8.57067 41.4395 8.26667 41.2155 8.032C41.0022 7.79733 40.7302 7.616 40.3995 7.488C40.0795 7.36 39.6315 7.22133 39.0555 7.072C38.3302 6.88 37.7382 6.688 37.2795 6.496C36.8315 6.29333 36.4475 5.984 36.1275 5.568C35.8075 5.152 35.6475 4.59733 35.6475 3.904C35.6475 3.264 35.8075 2.704 36.1275 2.224C36.4475 1.744 36.8955 1.376 37.4715 1.12C38.0475 0.863999 38.7142 0.735999 39.4715 0.735999C40.5488 0.735999 41.4288 1.008 42.1115 1.552C42.8048 2.08533 43.1888 2.82133 43.2635 3.76H41.2475C41.2155 3.35467 41.0235 3.008 40.6715 2.72C40.3195 2.432 39.8555 2.288 39.2795 2.288C38.7568 2.288 38.3302 2.42133 37.9995 2.688C37.6688 2.95467 37.5035 3.33867 37.5035 3.84C37.5035 4.18133 37.6048 4.464 37.8075 4.688C38.0208 4.90133 38.2875 5.072 38.6075 5.2C38.9275 5.328 39.3648 5.46667 39.9195 5.616C40.6555 5.81867 41.2528 6.02133 41.7115 6.224C42.1808 6.42667 42.5755 6.74133 42.8955 7.168C43.2262 7.584 43.3915 8.144 43.3915 8.848C43.3915 9.41333 43.2368 9.94667 42.9275 10.448C42.6288 10.9493 42.1862 11.3547 41.5995 11.664C41.0235 11.9627 40.3408 12.112 39.5515 12.112ZM52.7278 0.879999V2.368H49.7678V12H47.9438V2.368H44.9678V0.879999H52.7278ZM56.399 0.879999V12H54.575V0.879999H56.399ZM64.5698 12L62.0098 7.552H60.6178V12H58.7938V0.879999H62.6338C63.4871 0.879999 64.2071 1.02933 64.7938 1.328C65.3911 1.62667 65.8338 2.02667 66.1218 2.528C66.4204 3.02933 66.5698 3.58933 66.5698 4.208C66.5698 4.93333 66.3564 5.59467 65.9298 6.192C65.5138 6.77867 64.8684 7.17867 63.9938 7.392L66.7458 12H64.5698ZM60.6178 6.096H62.6338C63.3164 6.096 63.8284 5.92533 64.1698 5.584C64.5218 5.24267 64.6978 4.784 64.6978 4.208C64.6978 3.632 64.5271 3.184 64.1858 2.864C63.8444 2.53333 63.3271 2.368 62.6338 2.368H60.6178V6.096ZM79.7634 9.728H75.1074L74.3074 12H72.4034L76.3874 0.863999H78.4994L82.4834 12H80.5634L79.7634 9.728ZM79.2514 8.24L77.4434 3.072L75.6194 8.24H79.2514ZM92.2636 4.08C91.9756 3.52533 91.5756 3.10933 91.0636 2.832C90.5516 2.544 89.9596 2.4 89.2876 2.4C88.5516 2.4 87.8956 2.56533 87.3196 2.896C86.7436 3.22667 86.2903 3.696 85.9596 4.304C85.6396 4.912 85.4796 5.616 85.4796 6.416C85.4796 7.216 85.6396 7.92533 85.9596 8.544C86.2903 9.152 86.7436 9.62133 87.3196 9.952C87.8956 10.2827 88.5516 10.448 89.2876 10.448C90.2796 10.448 91.085 10.1707 91.7036 9.616C92.3223 9.06133 92.701 8.30933 92.8396 7.36H88.6636V5.904H94.7916V7.328C94.6743 8.192 94.365 8.98667 93.8636 9.712C93.373 10.4373 92.7276 11.0187 91.9276 11.456C91.1383 11.8827 90.2583 12.096 89.2876 12.096C88.2423 12.096 87.2876 11.856 86.4236 11.376C85.5596 10.8853 84.8716 10.208 84.3596 9.344C83.8583 8.48 83.6076 7.504 83.6076 6.416C83.6076 5.328 83.8583 4.352 84.3596 3.488C84.8716 2.624 85.5596 1.952 86.4236 1.472C87.2983 0.981332 88.253 0.735999 89.2876 0.735999C90.4716 0.735999 91.5223 1.02933 92.4396 1.616C93.3676 2.192 94.0396 3.01333 94.4556 4.08H92.2636ZM101.663 12.112C100.628 12.112 99.6733 11.872 98.7986 11.392C97.9346 10.9013 97.2466 10.224 96.7346 9.36C96.2333 8.48533 95.9826 7.504 95.9826 6.416C95.9826 5.328 96.2333 4.352 96.7346 3.488C97.2466 2.624 97.9346 1.952 98.7986 1.472C99.6733 0.981332 100.628 0.735999 101.663 0.735999C102.708 0.735999 103.663 0.981332 104.527 1.472C105.401 1.952 106.089 2.624 106.591 3.488C107.092 4.352 107.343 5.328 107.343 6.416C107.343 7.504 107.092 8.48533 106.591 9.36C106.089 10.224 105.401 10.9013 104.527 11.392C103.663 11.872 102.708 12.112 101.663 12.112ZM101.663 10.528C102.399 10.528 103.055 10.3627 103.631 10.032C104.207 9.69067 104.655 9.21067 104.975 8.592C105.305 7.96267 105.471 7.23733 105.471 6.416C105.471 5.59467 105.305 4.87467 104.975 4.256C104.655 3.63733 104.207 3.16267 103.631 2.832C103.055 2.50133 102.399 2.336 101.663 2.336C100.927 2.336 100.271 2.50133 99.6946 2.832C99.1186 3.16267 98.6653 3.63733 98.3346 4.256C98.0146 4.87467 97.8546 5.59467 97.8546 6.416C97.8546 7.23733 98.0146 7.96267 98.3346 8.592C98.6653 9.21067 99.1186 9.69067 99.6946 10.032C100.271 10.3627 100.927 10.528 101.663 10.528ZM114.914 12L112.354 7.552H110.962V12H109.138V0.879999H112.978C113.831 0.879999 114.551 1.02933 115.138 1.328C115.735 1.62667 116.178 2.02667 116.466 2.528C116.764 3.02933 116.914 3.58933 116.914 4.208C116.914 4.93333 116.7 5.59467 116.274 6.192C115.858 6.77867 115.212 7.17867 114.338 7.392L117.09 12H114.914ZM110.962 6.096H112.978C113.66 6.096 114.172 5.92533 114.514 5.584C114.866 5.24267 115.042 4.784 115.042 4.208C115.042 3.632 114.871 3.184 114.53 2.864C114.188 2.53333 113.671 2.368 112.978 2.368H110.962V6.096ZM125.951 9.728H121.295L120.495 12H118.591L122.575 0.863999H124.687L128.671 12H126.751L125.951 9.728ZM125.439 8.24L123.631 3.072L121.807 8.24H125.439Z" fill="#F9F9F9"/>
</svg>
