<svg width="183" height="24" viewBox="0 0 183 24" fill="none" xmlns="http://www.w3.org/2000/svg">
<path d="M18 2H15C13.6739 2 12.4021 2.52678 11.4645 3.46447C10.5268 4.40215 10 5.67392 10 7V10H7V14H10V22H14V14H17L18 10H14V7C14 6.73478 14.1054 6.48043 14.2929 6.29289C14.4804 6.10536 14.7348 6 15 6H18V2Z" stroke="#F9F9F9" stroke-width="1.5" stroke-linecap="round" stroke-linejoin="round"/>
<path d="M129 2.99998C128.042 3.67546 126.982 4.19209 125.86 4.52999C125.258 3.8375 124.457 3.34668 123.567 3.12391C122.677 2.90115 121.739 2.95718 120.882 3.28444C120.025 3.6117 119.288 4.19439 118.773 4.9537C118.258 5.71302 117.988 6.61232 118 7.52998V8.52998C116.243 8.57555 114.501 8.1858 112.931 7.39543C111.361 6.60506 110.01 5.43862 109 3.99998C109 3.99998 105 13 114 17C111.941 18.398 109.487 19.0989 107 19C116 24 127 19 127 7.49998C126.999 7.22144 126.972 6.94358 126.92 6.66999C127.941 5.66348 128.661 4.3927 129 2.99998V2.99998Z" stroke="#F9F9F9" stroke-width="1.5" stroke-linecap="round" stroke-linejoin="round"/>
<path d="M70 2H60C57.2386 2 55 4.23858 55 7V17C55 19.7614 57.2386 22 60 22H70C72.7614 22 75 19.7614 75 17V7C75 4.23858 72.7614 2 70 2Z" stroke="#F9F9F9" stroke-width="1.5" stroke-linecap="round" stroke-linejoin="round"/>
<path d="M69 11.37C69.1234 12.2022 68.9813 13.0522 68.5938 13.799C68.2063 14.5458 67.5932 15.1514 66.8416 15.5297C66.0901 15.9079 65.2385 16.0396 64.4078 15.9059C63.5771 15.7723 62.8098 15.3801 62.2149 14.7852C61.6199 14.1902 61.2277 13.4229 61.0941 12.5922C60.9604 11.7615 61.0921 10.9099 61.4703 10.1584C61.8486 9.40685 62.4542 8.79374 63.201 8.40624C63.9478 8.01874 64.7978 7.87658 65.63 8C66.4789 8.12588 67.2649 8.52146 67.8717 9.1283C68.4785 9.73515 68.8741 10.5211 69 11.37Z" stroke="#F9F9F9" stroke-width="1.5" stroke-linecap="round" stroke-linejoin="round"/>
<path d="M70.5 6.5H70.51" stroke="#F9F9F9" stroke-width="1.5" stroke-linecap="round" stroke-linejoin="round"/>
<path d="M181.54 6.42C181.421 5.94541 181.179 5.51057 180.839 5.15941C180.498 4.80824 180.071 4.55318 179.6 4.42C177.88 4 171 4 171 4C171 4 164.12 4 162.4 4.46C161.929 4.59318 161.502 4.84824 161.161 5.19941C160.821 5.55057 160.579 5.98541 160.46 6.46C160.145 8.20556 159.991 9.97631 160 11.75C159.989 13.537 160.143 15.3213 160.46 17.08C160.591 17.5398 160.838 17.9581 161.178 18.2945C161.518 18.6308 161.939 18.8738 162.4 19C164.12 19.46 171 19.46 171 19.46C171 19.46 177.88 19.46 179.6 19C180.071 18.8668 180.498 18.6118 180.839 18.2606C181.179 17.9094 181.421 17.4746 181.54 17C181.852 15.2676 182.006 13.5103 182 11.75C182.011 9.96295 181.857 8.1787 181.54 6.42V6.42Z" stroke="#F9F9F9" stroke-width="1.5" stroke-linecap="round" stroke-linejoin="round"/>
<path d="M168.75 15.02L174.5 11.75L168.75 8.48001V15.02Z" stroke="#F9F9F9" stroke-width="1.5" stroke-linecap="round" stroke-linejoin="round"/>
</svg>
